<svg xmlns="http://www.w3.org/2000/svg" xmlns:xlink="http://www.w3.org/1999/xlink" width="200" zoomAndPan="magnify" viewBox="0 0 150 67.499998" height="90" preserveAspectRatio="xMidYMid meet" version="1.0"><defs><g/><clipPath id="63b75e5a0d"><path d="M 7.421875 48.523438 L 141.59375 48.523438 L 141.59375 57.4375 L 7.421875 57.4375 Z M 7.421875 48.523438 " clip-rule="nonzero"/></clipPath><clipPath id="05640c5d33"><path d="M 7.492188 15.148438 L 22.359375 15.148438 L 22.359375 46.765625 L 7.492188 46.765625 Z M 7.492188 15.148438 " clip-rule="nonzero"/></clipPath></defs><g fill="#e6e6dd" fill-opacity="1"><g transform="translate(23.536183, 46.722514)"><g><path d="M 4.171875 0 L 4.171875 -25.875 L 0.375 -25.875 L 0.375 -32.03125 L 14.390625 -32.03125 L 14.390625 -25.875 L 10.59375 -25.875 L 10.59375 0 Z M 4.171875 0 "/></g></g></g><g fill="#e6e6dd" fill-opacity="1"><g transform="translate(38.298285, 46.722514)"><g><path d="M 1.421875 -32.03125 L 11.265625 -32.03125 C 12.828125 -32.03125 14.035156 -31.675781 14.890625 -30.96875 C 15.753906 -30.257812 16.332031 -29.265625 16.625 -27.984375 C 16.925781 -26.703125 17.078125 -25.066406 17.078125 -23.078125 C 17.078125 -21.265625 16.835938 -19.847656 16.359375 -18.828125 C 15.890625 -17.804688 15.070312 -17.097656 13.90625 -16.703125 C 14.875 -16.503906 15.578125 -16.019531 16.015625 -15.25 C 16.453125 -14.476562 16.671875 -13.429688 16.671875 -12.109375 L 16.59375 0 L 10.328125 0 L 10.328125 -12.53125 C 10.328125 -13.425781 10.148438 -13.992188 9.796875 -14.234375 C 9.453125 -14.484375 8.820312 -14.609375 7.90625 -14.609375 L 7.90625 0 L 1.421875 0 Z M 9.46875 -20.171875 C 10.363281 -20.171875 10.8125 -21.140625 10.8125 -23.078125 C 10.8125 -23.921875 10.773438 -24.550781 10.703125 -24.96875 C 10.628906 -25.394531 10.488281 -25.6875 10.28125 -25.84375 C 10.082031 -26.007812 9.800781 -26.09375 9.4375 -26.09375 L 7.9375 -26.09375 L 7.9375 -20.171875 Z M 9.46875 -20.171875 "/></g></g></g><g fill="#e6e6dd" fill-opacity="1"><g transform="translate(56.079908, 46.722514)"><g><path d="M 0.5625 0 L 3.65625 -32.03125 L 14.5 -32.03125 L 17.5625 0 L 11.484375 0 L 11.03125 -5.1875 L 7.15625 -5.1875 L 6.78125 0 Z M 7.640625 -10.296875 L 10.546875 -10.296875 L 9.140625 -26.578125 L 8.828125 -26.578125 Z M 7.640625 -10.296875 "/></g></g></g><g fill="#e6e6dd" fill-opacity="1"><g transform="translate(74.159751, 46.722514)"><g><path d="M 8.875 0.296875 C 6.539062 0.296875 4.671875 -0.429688 3.265625 -1.890625 C 1.859375 -3.359375 1.15625 -5.375 1.15625 -7.9375 L 1.15625 -22.703125 C 1.15625 -25.878906 1.785156 -28.273438 3.046875 -29.890625 C 4.316406 -31.515625 6.304688 -32.328125 9.015625 -32.328125 C 11.378906 -32.328125 13.28125 -31.679688 14.71875 -30.390625 C 16.164062 -29.097656 16.890625 -27.234375 16.890625 -24.796875 L 16.890625 -19.28125 L 10.515625 -19.28125 L 10.515625 -24.015625 C 10.515625 -24.929688 10.398438 -25.5625 10.171875 -25.90625 C 9.953125 -26.257812 9.566406 -26.4375 9.015625 -26.4375 C 8.453125 -26.4375 8.0625 -26.234375 7.84375 -25.828125 C 7.632812 -25.429688 7.53125 -24.847656 7.53125 -24.078125 L 7.53125 -8.015625 C 7.53125 -7.171875 7.65625 -6.554688 7.90625 -6.171875 C 8.15625 -5.785156 8.523438 -5.59375 9.015625 -5.59375 C 10.015625 -5.59375 10.515625 -6.398438 10.515625 -8.015625 L 10.515625 -13.796875 L 16.96875 -13.796875 L 16.96875 -7.75 C 16.96875 -2.382812 14.269531 0.296875 8.875 0.296875 Z M 8.875 0.296875 "/></g></g></g><g fill="#e6e6dd" fill-opacity="1"><g transform="translate(91.829537, 46.722514)"><g><path d="M 1.421875 0 L 1.421875 -32.03125 L 7.75 -32.03125 L 7.75 -19.203125 L 10.734375 -32.03125 L 17.1875 -32.03125 L 13.609375 -17.375 L 17.9375 0 L 11.296875 0 L 7.796875 -15.515625 L 7.796875 0 Z M 1.421875 0 "/></g></g></g><g fill="#e6e6dd" fill-opacity="1"><g transform="translate(109.424767, 46.722514)"><g><path d="M 1.421875 0 L 1.421875 -32.03125 L 14.234375 -32.03125 L 14.234375 -25.828125 L 7.9375 -25.828125 L 7.9375 -19.609375 L 13.984375 -19.609375 L 13.984375 -13.578125 L 7.9375 -13.578125 L 7.9375 -6.21875 L 14.65625 -6.21875 L 14.65625 0 Z M 1.421875 0 "/></g></g></g><g fill="#e6e6dd" fill-opacity="1"><g transform="translate(124.78331, 46.722514)"><g><path d="M 1.421875 -32.03125 L 11.265625 -32.03125 C 12.828125 -32.03125 14.035156 -31.675781 14.890625 -30.96875 C 15.753906 -30.257812 16.332031 -29.265625 16.625 -27.984375 C 16.925781 -26.703125 17.078125 -25.066406 17.078125 -23.078125 C 17.078125 -21.265625 16.835938 -19.847656 16.359375 -18.828125 C 15.890625 -17.804688 15.070312 -17.097656 13.90625 -16.703125 C 14.875 -16.503906 15.578125 -16.019531 16.015625 -15.25 C 16.453125 -14.476562 16.671875 -13.429688 16.671875 -12.109375 L 16.59375 0 L 10.328125 0 L 10.328125 -12.53125 C 10.328125 -13.425781 10.148438 -13.992188 9.796875 -14.234375 C 9.453125 -14.484375 8.820312 -14.609375 7.90625 -14.609375 L 7.90625 0 L 1.421875 0 Z M 9.46875 -20.171875 C 10.363281 -20.171875 10.8125 -21.140625 10.8125 -23.078125 C 10.8125 -23.921875 10.773438 -24.550781 10.703125 -24.96875 C 10.628906 -25.394531 10.488281 -25.6875 10.28125 -25.84375 C 10.082031 -26.007812 9.800781 -26.09375 9.4375 -26.09375 L 7.9375 -26.09375 L 7.9375 -20.171875 Z M 9.46875 -20.171875 "/></g></g></g><g clip-path="url(#63b75e5a0d)"><path fill="#e6e6dd" d="M 7.421875 48.523438 L 141.601562 48.523438 L 141.601562 57.4375 L 7.421875 57.4375 Z M 7.421875 48.523438 " fill-opacity="1" fill-rule="nonzero"/></g><g clip-path="url(#05640c5d33)"><path fill="#e6e6dd" d="M 7.492188 15.148438 L 22.359375 15.148438 L 22.359375 46.742188 L 7.492188 46.742188 Z M 7.492188 15.148438 " fill-opacity="1" fill-rule="nonzero"/></g><g fill="#3075b3" fill-opacity="1"><g transform="translate(20.501752, 43.722934)"><g><path d="M 0.109375 -3.265625 C 0.109375 -2.210938 -0.148438 -1.453125 -0.671875 -0.984375 C -1.191406 -0.515625 -2.03125 -0.28125 -3.1875 -0.28125 L -4.328125 -0.28125 L -4.328125 -2.5625 L -2.875 -2.5625 C -2.300781 -2.5625 -2.015625 -2.742188 -2.015625 -3.109375 C -2.015625 -3.316406 -2.078125 -3.457031 -2.203125 -3.53125 C -2.328125 -3.613281 -2.53125 -3.65625 -2.8125 -3.65625 C -3.1875 -3.65625 -3.5 -3.609375 -3.75 -3.515625 C -4 -3.429688 -4.207031 -3.320312 -4.375 -3.1875 C -4.539062 -3.050781 -4.796875 -2.800781 -5.140625 -2.4375 L -6.140625 -1.4375 C -6.890625 -0.664062 -7.722656 -0.28125 -8.640625 -0.28125 C -9.628906 -0.28125 -10.378906 -0.503906 -10.890625 -0.953125 C -11.410156 -1.410156 -11.671875 -2.078125 -11.671875 -2.953125 C -11.671875 -3.992188 -11.394531 -4.742188 -10.84375 -5.203125 C -10.289062 -5.660156 -9.425781 -5.890625 -8.25 -5.890625 L -8.25 -3.53125 L -9.046875 -3.515625 C -9.203125 -3.515625 -9.320312 -3.472656 -9.40625 -3.390625 C -9.5 -3.304688 -9.546875 -3.1875 -9.546875 -3.03125 C -9.546875 -2.851562 -9.492188 -2.71875 -9.390625 -2.625 C -9.296875 -2.53125 -9.164062 -2.484375 -9 -2.484375 C -8.625 -2.484375 -8.234375 -2.703125 -7.828125 -3.140625 L -6.53125 -4.484375 C -6.226562 -4.796875 -5.9375 -5.054688 -5.65625 -5.265625 C -5.382812 -5.472656 -5.0625 -5.640625 -4.6875 -5.765625 C -4.320312 -5.890625 -3.878906 -5.953125 -3.359375 -5.953125 C -2.222656 -5.953125 -1.359375 -5.742188 -0.765625 -5.328125 C -0.179688 -4.910156 0.109375 -4.222656 0.109375 -3.265625 Z M 0.109375 -3.265625 "/></g></g></g><g fill="#3075b3" fill-opacity="1"><g transform="translate(20.501752, 34.361346)"><g><path d="M -11.5625 -0.515625 L -11.5625 -3.703125 C -11.5625 -4.523438 -11.332031 -5.144531 -10.875 -5.5625 C -10.425781 -5.976562 -9.75 -6.191406 -8.84375 -6.203125 L -3.4375 -6.21875 C -2.289062 -6.226562 -1.429688 -6.03125 -0.859375 -5.625 C -0.285156 -5.226562 0 -4.5625 0 -3.625 L 0 -0.515625 Z M -2.046875 -3.25 C -2.046875 -3.664062 -2.253906 -3.875 -2.671875 -3.875 L -8.640625 -3.875 C -8.898438 -3.875 -9.09375 -3.851562 -9.21875 -3.8125 C -9.351562 -3.769531 -9.441406 -3.695312 -9.484375 -3.59375 C -9.523438 -3.488281 -9.546875 -3.320312 -9.546875 -3.09375 L -9.546875 -2.84375 L -2.046875 -2.84375 Z M -2.046875 -3.25 "/></g></g></g><g fill="#3075b3" fill-opacity="1"><g transform="translate(20.501752, 24.568789)"><g><path d="M 0.109375 -3.203125 C 0.109375 -2.359375 -0.15625 -1.679688 -0.6875 -1.171875 C -1.21875 -0.671875 -1.945312 -0.421875 -2.875 -0.421875 L -8.203125 -0.421875 C -9.347656 -0.421875 -10.210938 -0.648438 -10.796875 -1.109375 C -11.378906 -1.566406 -11.671875 -2.285156 -11.671875 -3.265625 C -11.671875 -4.109375 -11.4375 -4.789062 -10.96875 -5.3125 C -10.507812 -5.832031 -9.835938 -6.09375 -8.953125 -6.09375 L -6.96875 -6.09375 L -6.96875 -3.796875 L -8.671875 -3.796875 C -9.003906 -3.796875 -9.234375 -3.753906 -9.359375 -3.671875 C -9.484375 -3.597656 -9.546875 -3.460938 -9.546875 -3.265625 C -9.546875 -3.054688 -9.472656 -2.910156 -9.328125 -2.828125 C -9.191406 -2.753906 -8.984375 -2.71875 -8.703125 -2.71875 L -2.890625 -2.71875 C -2.585938 -2.71875 -2.363281 -2.757812 -2.21875 -2.84375 C -2.082031 -2.9375 -2.015625 -3.078125 -2.015625 -3.265625 C -2.015625 -3.617188 -2.304688 -3.796875 -2.890625 -3.796875 L -4.984375 -3.796875 L -4.984375 -6.125 L -2.796875 -6.125 C -0.859375 -6.125 0.109375 -5.148438 0.109375 -3.203125 Z M 0.109375 -3.203125 "/></g></g></g></svg>